<?xml version="1.0" encoding="UTF-8" standalone="no"?>
<!-- Created with Inkscape (http://www.inkscape.org/) -->

<svg
   xmlns:dc="http://purl.org/dc/elements/1.1/"
   xmlns:cc="http://creativecommons.org/ns#"
   xmlns:rdf="http://www.w3.org/1999/02/22-rdf-syntax-ns#"
   xmlns:svg="http://www.w3.org/2000/svg"
   xmlns="http://www.w3.org/2000/svg"
   xmlns:sodipodi="http://sodipodi.sourceforge.net/DTD/sodipodi-0.dtd"
   xmlns:inkscape="http://www.inkscape.org/namespaces/inkscape"
   width="210mm"
   height="297mm"
   viewBox="0 0 210 297"
   version="1.1"
   id="svg8"
   sodipodi:docname="escoutlogo.svg"
   inkscape:version="0.92.4 (5da689c313, 2019-01-14)">
  <defs
     id="defs2" />
  <sodipodi:namedview
     id="base"
     pagecolor="#ffffff"
     bordercolor="#666666"
     borderopacity="1.0"
     inkscape:pageopacity="0.0"
     inkscape:pageshadow="2"
     inkscape:zoom="0.49497475"
     inkscape:cx="775.2473"
     inkscape:cy="570.91594"
     inkscape:document-units="mm"
     inkscape:current-layer="layer1"
     showgrid="false"
     inkscape:window-width="1858"
     inkscape:window-height="1016"
     inkscape:window-x="62"
     inkscape:window-y="27"
     inkscape:window-maximized="1" />
  <metadata
     id="metadata5">
    <rdf:RDF>
      <cc:Work
         rdf:about="">
        <dc:format>image/svg+xml</dc:format>
        <dc:type
           rdf:resource="http://purl.org/dc/dcmitype/StillImage" />
        <dc:title />
      </cc:Work>
    </rdf:RDF>
  </metadata>
  <g
     inkscape:label="Layer 1"
     inkscape:groupmode="layer"
     id="layer1">
    <ellipse
       style="fill:#000000;stroke-width:0.50174069"
       id="path3742"
       cx="105.10425"
       cy="148.84579"
       rx="103.32968"
       ry="104.17734" />
    <g
       id="g3760"
       transform="matrix(1.2096291,0,0,1.230441,-12.856186,-10.565884)"
       style="fill:#008080">
      <ellipse
         ry="77.10714"
         rx="77.485115"
         cy="130.69048"
         cx="97.895851"
         id="path3742-9"
         style="fill:#008080;stroke-width:0.37379768" />
    </g>
    <path
       style="fill:#000000;stroke:#000000;stroke-width:0.37093154px;stroke-linecap:butt;stroke-linejoin:miter;stroke-opacity:1"
       d="m 36.771834,138.77337 c 15.007954,-21.38432 40.240628,-48.186542 40.240628,-48.186542 0,0 9.564294,-12.345985 21.974195,-12.646889 8.556993,-0.207482 12.858063,1.771629 15.618503,2.789199 4.16681,1.536001 0.25448,12.939804 -2.69805,16.022625 -0.6078,0.634655 -1.88287,0.3284 -2.25492,0.161837 -3.12767,-1.400275 -5.17344,-3.802713 -10.262386,-2.870101 -4.169897,0.764181 -6.13105,2.926672 -7.884898,4.292191 -4.302968,3.35025 -5.151513,6.98792 -5.102137,11.10674 0.02531,2.10933 0.438247,3.64752 1.848476,5.68378 1.335954,1.929 2.793663,2.48326 6.567478,2.49024 6.154077,0.0115 16.474387,-2.09597 20.910277,-2.71787 9.63389,-1.35059 9.08948,-1.79326 25.17014,-4.34121 1.00238,-0.15882 4.05965,-0.67149 5.12652,1.25421 0.70065,1.26465 1.66046,4.30012 0.92301,6.81795 -0.38547,1.31614 -2.14569,2.83807 -2.69503,3.14687 -25.93189,14.577 -48.89064,36.87014 -72.419299,55.44368 -8.111343,6.40307 -16.360319,14.07819 -16.101475,15.88681 0.165431,1.15585 8.882002,0.18194 13.836708,0.0785 6.392241,-0.13334 37.858516,-3.88507 54.453316,-6.35922 0.73057,-0.10895 1.30081,-0.92582 1.53964,-2.20468 1.26089,-6.75147 8.30312,-12.89323 13.24441,-16.06234 5.78176,-3.70815 13.69191,-3.82046 17.78108,-3.4801 2.97996,0.24807 8.40217,1.07716 11.481,2.45367 5.2944,2.36712 10.77052,8.8354 12.5715,12.25547 3.14927,5.98048 3.76822,8.95443 4.05103,15.12894 0.13973,3.05089 -0.65928,2.07117 -5.22372,2.30211 -10.83364,0.54813 -9.57905,1.98354 -10.789,-2.68334 -1.27828,-4.93045 -0.85757,-6.53361 -4.01198,-10.07071 -3.45376,-3.87275 -8.93998,-7.14694 -13.8573,-6.05781 -4.63273,1.02612 -7.45983,2.83716 -10.0165,7.06558 -1.34083,2.21752 -3.06032,8.04049 -3.60412,11.90213 -0.15354,1.09003 -0.44096,2.03783 -2.04828,2.38915 -2.66204,0.58191 -5.00995,0.65198 -7.79527,0.84615 -2.11944,0.14776 -3.98707,0.26626 -6.1068,0.40953 -27.049079,1.82809 -50.331023,6.4237 -81.072583,6.61282 -0.884578,0.004 -5.557079,-0.70321 -7.222752,-3.26317 -1.871429,-2.87619 -1.328907,-6.82603 0.94945,-9.1921 18.952503,-19.68213 53.603419,-48.74106 65.811356,-56.74548 3.306579,-2.16803 -14.543537,0.28681 -22.467967,-5.81174 -6.507751,-5.0083 -7.506114,-14.7141 -8.451741,-14.59588 -1.962409,0.24537 -25.198604,27.84719 -25.198604,27.84719 0,0 -3.477621,3.29632 -6.533943,0.0624 -2.652361,-2.80658 -1.62434,-5.24499 -0.279962,-7.16056 z"
       id="path3797"
       inkscape:connector-curvature="0"
       sodipodi:nodetypes="scssssssssssssssssssssssssssssssssssssssscss" />
    <ellipse
       style="fill:#000000;stroke-width:0.35594159"
       id="path3801"
       cx="50.328121"
       cy="92.023415"
       rx="9.7746649"
       ry="10.002187" />
  </g>
</svg>
